<?xml version="1.0" encoding="UTF-8"?> <svg xmlns="http://www.w3.org/2000/svg" id="Layer_1" data-name="Layer 1" viewBox="0 0 417.29 131.88"><defs><style>.cls-1{fill:#fff;}</style></defs><path class="cls-1" d="M227.76,110.14h-3v15.21h2.93c2.36,0,4.18-.32,6-1.92a7.82,7.82,0,0,0,0-11.46A8.29,8.29,0,0,0,227.76,110.14Zm.06,13.33h-1V112h1a6.19,6.19,0,0,1,4.49,1.4,5.93,5.93,0,0,1,.08,8.57A6,6,0,0,1,227.82,123.47Z"></path><polygon class="cls-1" points="242.1 125.35 250.13 125.35 250.13 123.47 244.09 123.47 244.09 117.97 249.96 117.97 249.96 116.09 244.09 116.09 244.09 112.01 250.13 112.01 250.13 110.14 242.1 110.14 242.1 125.35"></polygon><path class="cls-1" d="M261.82,116.5l-1-.43c-1-.45-2.22-1-2.22-2.17a2.2,2.2,0,0,1,2.3-2.14,2.55,2.55,0,0,1,2.41,1.53l.09.15,1.6-1-.08-.13a4.4,4.4,0,0,0-4-2.4,4.06,4.06,0,0,0-4.32,4c0,2.25,1.64,3.19,3.33,4l1,.42c1.32.61,2.56,1.18,2.56,2.78a2.81,2.81,0,0,1-2.88,2.73,2.89,2.89,0,0,1-2.81-2.62l0-.19-2,.55,0,.16a4.86,4.86,0,0,0,9.63-.79C265.49,118.32,263.67,117.32,261.82,116.5Z"></path><rect class="cls-1" x="271.56" y="110.14" width="1.99" height="15.21"></rect><path class="cls-1" d="M287.79,117.54v1.87h4.41c-.11,2.59-2.7,4.32-5.12,4.32a6.05,6.05,0,0,1-4.1-1.84,5.84,5.84,0,0,1-1.68-4.09,6,6,0,0,1,5.89-6,5.88,5.88,0,0,1,5,2.73l.11.16,1.45-1.37-.09-.12a7.78,7.78,0,0,0-6.42-3.28,7.87,7.87,0,0,0-.09,15.73,7.48,7.48,0,0,0,5.62-2.55c1.37-1.59,1.62-3.23,1.57-5.36v-.16Z"></path><polygon class="cls-1" points="311.95 121.4 300.37 109.25 300.37 125.35 302.37 125.35 302.37 114.14 313.94 126.27 313.94 110.14 311.95 110.14 311.95 121.4"></polygon><path class="cls-1" d="M335.92,116.5l-1-.43c-1-.45-2.21-1-2.21-2.17a2.19,2.19,0,0,1,2.29-2.14,2.55,2.55,0,0,1,2.41,1.53l.09.15,1.6-1-.07-.13a4.43,4.43,0,0,0-4-2.4,4.06,4.06,0,0,0-4.33,4c0,2.25,1.65,3.19,3.33,4l1,.42c1.32.61,2.56,1.18,2.56,2.78a2.81,2.81,0,0,1-2.88,2.73,2.88,2.88,0,0,1-2.8-2.62l0-.19-1.95.55,0,.16a4.86,4.86,0,0,0,9.63-.79C339.59,118.32,337.78,117.32,335.92,116.5Z"></path><polygon class="cls-1" points="344.32 112.01 347.9 112.01 347.9 125.35 349.9 125.35 349.9 112.01 353.52 112.01 353.52 110.14 344.32 110.14 344.32 112.01"></polygon><path class="cls-1" d="M367.73,119.17v.23a4.67,4.67,0,0,1-.69,3.07,3.77,3.77,0,0,1-2.79,1.26,3.65,3.65,0,0,1-2.85-1.35,5,5,0,0,1-.62-3v-9.2h-2v9.48c0,1.63.11,3.09,1.5,4.42a5.76,5.76,0,0,0,4,1.57,5.62,5.62,0,0,0,4.12-1.75,5.43,5.43,0,0,0,1.35-4.24v-9.48h-2Z"></path><path class="cls-1" d="M379.23,110.14h-3v15.21h2.92c2.37,0,4.19-.32,6-1.92a7.82,7.82,0,0,0,0-11.46A8.28,8.28,0,0,0,379.23,110.14Zm.06,13.33h-1V112h1a6.21,6.21,0,0,1,4.5,1.4,5.92,5.92,0,0,1,.07,8.57A6,6,0,0,1,379.29,123.47Z"></path><rect class="cls-1" x="393.61" y="110.14" width="1.99" height="15.21"></rect><path class="cls-1" d="M409.38,109.88a7.87,7.87,0,1,0,7.91,7.88A7.91,7.91,0,0,0,409.38,109.88Zm0,13.85a6,6,0,1,1,5.92-6A6,6,0,0,1,409.38,123.73Z"></path><path class="cls-1" d="M48.5,70.31c-2.16-1.59-4.28-3.06-6.32-4.64C36.56,61.29,31,56.82,26.35,51.37a31.15,31.15,0,0,1-6.92-12.1,14.73,14.73,0,0,1-.44-6A4.87,4.87,0,0,1,26.57,30,163,163,0,0,1,41,41.23,136.75,136.75,0,0,0,61.73,55.47a3,3,0,0,0,3.71-.33c4.42-3.5,8.85-7,13.3-10.49,2.21-1.74,4.44-3.44,6.69-5.12a1,1,0,0,0,.45-1.07,6,6,0,0,1-.09-1.19c0-1.43.4-2.13,1.82-2.38C93.85,33.8,98.83,30.22,104,27c15.37-9.59,31.53-17.49,49-22.48,4.76-1.36,9.63-2.36,14.47-3.44a11.32,11.32,0,0,1,5.89.13,3.24,3.24,0,0,1,2.48,2.44,3.09,3.09,0,0,1-1.31,3.44c-2.67,1.72-5.33,3.46-8.14,4.94-6.08,3.2-12.57,5.44-19,7.69S134.49,24,128,26.21a1.84,1.84,0,0,0-.79.48l6.26-.24c6.86-.3,13.72-.41,20.53.71,5.76.94,11.29,2.51,16.13,5.95,4.14,2.94,7.53,6.55,8.82,11.62,1.92,7.49.15,14.21-4.67,20.17a26.66,26.66,0,0,0-2,2.48c1.8-.5,3.63-.91,5.38-1.54s3.63-1.63,5.7-1.48c.76.06,1.54.19,1.79,1a1.67,1.67,0,0,1-1,2,17,17,0,0,1-3.06,1.43,94.32,94.32,0,0,1-14.49,3.27,3.39,3.39,0,0,0-1.06.28C158.82,76,151.46,78,144.1,80a145.67,145.67,0,0,1-21.75,3.75A202.47,202.47,0,0,1,99.26,85,90.47,90.47,0,0,1,84,83.53a95,95,0,0,1-23.92-7.29c-2.45-1.12-4.87-2.3-7.27-3.52a1.1,1.1,0,0,0-1.51.3A301.68,301.68,0,0,0,29.12,98.6C23.94,105.1,19,111.82,14,118.41c-1.38,1.8-2.89,3.51-4.38,5.22a16.49,16.49,0,0,0-3.23,5.46,5,5,0,0,1-.56,1.13c-1,1.61-2.7,2.09-4.09,1.24a3.43,3.43,0,0,1-1.22-4.67,39.47,39.47,0,0,1,2.86-4Q16.88,106.35,30.5,90c5.5-6.64,11.35-12.93,17.41-19C48.09,70.76,48.26,70.57,48.5,70.31ZM67.74,58.48c.33.2.44.28.56.34a95.63,95.63,0,0,0,32.77,9.36c6,.58,11.93.93,17.91,1.24,4.16.22,8.33.28,12.5.26,5.92,0,11.85-.11,17.77-.34,4.16-.15,8.31-.52,12.46-.91a7.4,7.4,0,0,0,3.63-1,25.8,25.8,0,0,0,8.53-10.21A16,16,0,0,0,170,38.47a29.19,29.19,0,0,0-14.29-6.92,85.59,85.59,0,0,0-26.58-.92,234.34,234.34,0,0,0-27.32,5,33.53,33.53,0,0,0-13.12,6c-4.27,3.29-8.65,6.44-12.88,9.79C73.06,53.63,70.48,56.07,67.74,58.48ZM156,72.72l0-.2-1.15,0c-3.46.15-6.91.37-10.37.44-5.67.12-11.34.19-17,.18-5.16,0-10.32,0-15.47-.21a119.91,119.91,0,0,1-21-2.64A113,113,0,0,1,74,65.66c-2.35-.91-4.63-2-7-2.89a5.86,5.86,0,0,0-6.76,1.56C58.64,66,57,67.61,55.33,69.25a.91.91,0,0,0-.12.26l2.28,1.17A94.11,94.11,0,0,0,95.58,81.12a120,120,0,0,0,17.17-.32,207.91,207.91,0,0,0,37.88-6.53C152.42,73.79,154.19,73.24,156,72.72ZM24.1,34.19a11.21,11.21,0,0,0,.73,7A33,33,0,0,0,30.94,50,96.8,96.8,0,0,0,51.21,67.18c.47.31.7.11,1-.18,1.36-1.28,2.74-2.55,4.11-3.83l3.87-3.63c-.4-.26-.7-.47-1-.64A185.41,185.41,0,0,1,32.5,40.42C29.84,38.26,27,36.33,24.1,34.19Zm87-6.68c.16-.05.32-.08.47-.14,9.88-3.3,19.78-6.56,29.63-9.94a197.25,197.25,0,0,0,22.4-9.19c1.73-.84,3.36-1.89,5-2.85l-.11-.2C147.74,8.36,128.84,16.4,111.09,27.51Z"></path><path class="cls-1" d="M229.47,40.69c-1.24-1.58-2.47-3.18-3.72-4.75s-2.68-3.16-3.92-4.82a5.47,5.47,0,0,1-1.14-4,3.59,3.59,0,0,1,2.7-3.13,3,3,0,0,1,3.33,2.09c.42,1,.63,2.12,1,3.15a11.82,11.82,0,0,0,1.31,2.64c1.24,1.69,2.62,3.28,3.93,4.92a1.06,1.06,0,0,0,1.69.26c5.3-3.46,10.55-7,16-10.27a202.61,202.61,0,0,1,50-21.89A154.22,154.22,0,0,1,324.73.23a21.67,21.67,0,0,1,10.41.92,10.09,10.09,0,0,1,6.34,11.73c-1,4.78-3.67,8.48-7.07,11.78-4,3.91-8.83,6.73-13.76,9.33-9.66,5.08-20,8.22-30.63,10.43a169.22,169.22,0,0,1-19.89,3.11,90.93,90.93,0,0,1-20.79-.48,5.93,5.93,0,0,0-5.41,1.6c-1.68,1.73-3.24,3.58-4.79,5.42q-19.62,23.22-39.21,46.47a39.41,39.41,0,0,1-10.88,8.78c-5.49,3.1-11.74-.69-11.78-7a11.89,11.89,0,0,1,.89-4.48c3.77-9.66,9.65-18,16.51-25.62a179.54,179.54,0,0,1,17.56-17.33c5.34-4.53,10.88-8.83,16.33-13.23.44-.36.93-.65,1.39-1Zm19.22,1.59a10.37,10.37,0,0,0,1.1.29c2,.25,4,.59,6.08.71a106,106,0,0,0,26.49-1.73c10.81-2.08,21.46-4.77,31.6-9.18a57.17,57.17,0,0,0,15.11-9.24,15.68,15.68,0,0,0,5.69-9.7c.56-4-1-6.6-4.81-7.84a20.08,20.08,0,0,0-7.14-.87,95.36,95.36,0,0,0-21.46,3.79A224.9,224.9,0,0,0,277,17.35,38.8,38.8,0,0,0,261,29c-3.44,4.29-7.47,8.09-11.24,12.11C249.41,41.43,249.13,41.77,248.69,42.28Zm-7.84,3.26c-1.95-.71-3.76-1.35-5.56-2a3.41,3.41,0,0,0-3.49.6c-6.62,5-13.07,10.27-19.21,15.88a174,174,0,0,0-20.38,21.92c-3.08,4-6.1,8-8,12.71a29.89,29.89,0,0,0-1.85,6.25c-.5,3.17,1.57,4.79,4.63,3.91a16.63,16.63,0,0,0,7.08-4.41,280.15,280.15,0,0,0,19.51-21.25c6.85-8.36,13.6-16.81,20.4-25.22C236.22,51.16,238.48,48.43,240.85,45.54Zm-2.57-6.21c1.05.45,1.91.85,2.79,1.2,2.43.93,3.46.71,5.17-1.28,2.61-3,5.16-6.12,7.74-9.18.35-.41.69-.83,1-1.24l-.11-.11Z"></path><path class="cls-1" d="M273,76c1.62.45,3.23,1,4.88,1.35a23.7,23.7,0,0,0,19.27-3.7c4-2.71,8.29-5,12.46-7.5a4.54,4.54,0,0,1,3.28-.58,2.45,2.45,0,0,1,1.53.8,1.81,1.81,0,0,1-.44,2.11,3.49,3.49,0,0,1-1,.7c-5.39,3.09-10.79,6.16-16.17,9.27-1.83,1.07-3.61,2.25-5.39,3.41a2.62,2.62,0,0,0-.91.87c-.17.33-.3.91-.13,1.14a1.59,1.59,0,0,0,1.18.57,4.74,4.74,0,0,0,1.59-.53c1.79-.78,3.59-1.53,5.36-2.37,1.55-.74,3.1-1.51,4.59-2.38a12.69,12.69,0,0,1,5.25-1.83A2.34,2.34,0,0,1,311,79.4a22.77,22.77,0,0,0,.37,2.61c.76,3.1,3.06,4.48,5.94,5.15a56.47,56.47,0,0,0,12.17,1.07c6,.06,12,0,17.95.16a200.48,200.48,0,0,0,21.23-.79q12-1,24.07-2c4.69-.38,9.39-.65,14.08-1a7.43,7.43,0,0,0,5.72-3.08,2.39,2.39,0,0,1,2.81-1.07A2.84,2.84,0,0,1,417.24,83a2.4,2.4,0,0,1-1.4,2.34,22.4,22.4,0,0,1-9,2.54c-7.59.66-15.17,1.5-22.77,2.21-6.48.61-13,1.29-19.48,1.67-5.57.32-11.16.32-16.75.36-5.89,0-11.8.11-17.69-.1a143.51,143.51,0,0,1-14.48-1.22c-5.05-.71-7.82-3.87-8.48-8.91a4,4,0,0,0-.08-.4l-1,.42c-3.68,1.7-7.34,3.45-11,5.08a13.06,13.06,0,0,1-6.2,1.2c-2.62-.16-3.64-1.6-2.92-4.15.2-.73.51-1.43.81-2.26-.57-.08-1.09-.17-1.61-.23-3.27-.38-6.54-.69-9.8-1.15A14.84,14.84,0,0,1,269,78a1.59,1.59,0,0,0-1.7-.12c-9.59,3.6-18.9,8-28.92,10.39a22.13,22.13,0,0,1-4.26.69,3.48,3.48,0,0,1-3.43-2.47,3.43,3.43,0,0,1,.85-3.92c1.69-1.68,3.45-3.3,5.22-4.89,3.74-3.39,7.49-6.78,11.3-10.11a11.13,11.13,0,0,1,5.1-2.93c.8-.16,1.52-.26,2.06.52s.9,1.76.24,2.52a14.75,14.75,0,0,1-3,2.6c-2.43,1.61-5,3-7.4,4.66a58.36,58.36,0,0,0-9.79,9.19,5.52,5.52,0,0,0-.52,1c.52,0,.84,0,1.15-.08,5.73-.89,11-3.11,16.46-5,4.08-1.46,8.13-3,12.2-4.5a3.78,3.78,0,0,0,2.61-2.62A15.62,15.62,0,0,1,272.1,66c6.56-5.93,13.58-11.19,21.66-14.89a33.8,33.8,0,0,1,9.09-3,6.23,6.23,0,0,1,4,.48,3.24,3.24,0,0,1,1.58,4.13,5.94,5.94,0,0,1-2.47,2.84,362.08,362.08,0,0,1-31,19c-.65.35-1.26.76-1.89,1.14ZM271.85,72l.16.15.44-.19,6.84-3.61a161.9,161.9,0,0,0,21.55-13.27,7.23,7.23,0,0,0,1.53-1.77,1.07,1.07,0,0,0,0-1,1.19,1.19,0,0,0-1-.27,9.39,9.39,0,0,0-1.86.6,88.79,88.79,0,0,0-16,8.47,47.56,47.56,0,0,0-9.94,8.46C273,70.34,272.43,71.2,271.85,72Z"></path><path class="cls-1" d="M258.07,61.76a3.3,3.3,0,0,1-3.17-2.41,2.74,2.74,0,0,1,1.79-2.88,4.22,4.22,0,0,1,4.54.54,2.08,2.08,0,0,1,.17,3.21A4.57,4.57,0,0,1,258.07,61.76Z"></path><path class="cls-1" d="M172.92,85.09a2.61,2.61,0,0,1-3.12,2.66,2.7,2.7,0,0,1-2.65-3.17,3.07,3.07,0,0,1,3.07-3.1A3.17,3.17,0,0,1,172.92,85.09Z"></path></svg> 